Coordinates
version=1
nRows=13
nColumns=36
inDegrees=yes

Units are S.I. units (second, meters, Newtons, ...)
If the header above contains a line with 'inDegrees', this indicates whether rotational values are in degrees (yes) or radians (no).

endheader
time	pelvis_tilt	pelvis_list	pelvis_rotation	pelvis_tx	pelvis_ty	pelvis_tz	hip_flexion_r	hip_adduction_r	hip_rotation_r	knee_angle_r	knee_angle_r_beta	ankle_angle_r	subtalar_angle_r	mtp_angle_r	hip_flexion_l	hip_adduction_l	hip_rotation_l	knee_angle_l	knee_angle_l_beta	ankle_angle_l	subtalar_angle_l	mtp_angle_l	lumbar_extension	lumbar_bending	lumbar_rotation	arm_flex_r	arm_add_r	arm_rot_r	elbow_flex_r	pro_sup_r	arm_flex_l	arm_add_l	arm_rot_l	elbow_flex_l	pro_sup_l
      1.02000000	      1.04388805	      1.35376920	      0.61171308	      1.11448539	      0.95253688	     -0.25330766	     24.85693212	     -1.90746514	      9.98390373	     11.45591634	      0.19994346	      4.90394331	     -0.06435878	     -7.16656540	    -11.41404084	      3.04167289	     10.58272773	      6.89279781	      0.12030202	     15.33310292	      5.80382399	     -7.16656540	     -6.90640994	     -2.26620613	     -7.07509474	    -14.61597519	     -2.65568481	    -15.44237973	     34.69761297	    112.06270618	      7.54376572	    -10.38381544	     -1.67458806	     40.43206365	    110.09454430
      1.03000000	      1.00423819	      1.53515196	      0.92478992	      1.12630089	      0.94979041	     -0.25270618	     24.87983864	     -2.26760028	     10.03493957	      9.05916433	      0.15811225	      5.42946106	      2.50528513	     -7.17785501	    -12.32064022	      3.09856863	     10.85593852	      6.67230817	      0.11645375	     15.81872784	      5.96922474	     -7.17785501	     -6.99944620	     -2.47203438	     -7.29054667	    -14.71326875	     -2.47342821	    -15.81213601	     34.46350286	    112.08746332	      8.00131360	    -10.56209862	     -1.22204165	     41.43957030	    110.10999062
      1.04000000	      0.95666338	      1.69443464	      1.16902442	      1.13822996	      0.94698388	     -0.25187400	     24.86962466	     -2.53572031	     10.28795495	      6.87383819	      0.11997111	      5.63310757	      4.29286986	     -7.18432452	    -13.23540556	      3.11851483	     10.92973747	      6.43303414	      0.11227763	     16.39263683	      6.12150509	     -7.18432452	     -7.06967449	     -2.68178705	     -7.50532586	    -14.76566737	     -2.38654996	    -16.02495089	     34.17502264	    112.08964954	      8.41781274	    -10.78141382	     -0.90511909	     42.29725536	    110.15491666
      1.05000000	      0.92740533	      1.82488737	      1.45166494	      1.15031204	      0.94418480	     -0.25105587	     24.91576529	     -2.77856233	     10.02081980	      5.18234889	      0.09044905	      6.26886290	      6.36087075	     -7.19930873	    -14.15990029	      3.06736766	     10.90405670	      6.21623656	      0.10849380	     16.89114148	      6.68871344	     -7.19930873	     -7.17450784	     -2.84161571	     -7.73288278	    -14.79145736	     -2.27420009	    -16.26112981	     33.83285881	    112.13423895	      8.73035132	    -10.94417916	     -0.64120765	     43.31804138	    110.13451914
      1.06000000	      0.96600095	      1.91768322	      1.67156671	      1.16250302	      0.94148445	     -0.25003160	     24.83707859	     -2.90080510	     10.06569198	      3.75064772	      0.06546115	      6.55288685	      7.39616110	     -7.20511849	    -15.19923968	      2.96678250	     10.84490618	      5.93901740	      0.10365541	     17.34457922	      7.05637687	     -7.20511849	     -7.34939519	     -2.97542266	     -7.90794579	    -14.76879570	     -2.20349730	    -16.40075741	     33.46004322	    112.12684408	      9.04135386	    -11.08763446	     -0.40552693	     44.14973990	    110.19258331
      1.07000000	      0.93221774	      1.97939986	      1.91613680	      1.17488668	      0.93869884	     -0.24892996	     24.89568749	     -2.94834534	      9.81907576	      2.86505183	      0.05000459	      7.00851519	      7.94689610	     -7.20918255	    -16.12099943	      2.81150288	     10.74781857	      5.73237660	      0.10004885	     17.62909469	      7.50968092	     -7.20918255	     -7.42165735	     -3.05612213	     -7.99516539	    -14.83050056	     -2.13481217	    -16.51664983	     33.09055520	    112.11671288	      9.34174821	    -11.13285038	     -0.27306154	     44.94523100	    110.24742341
      1.08000000	      1.01756303	      2.00161272	      2.12304118	      1.18746699	      0.93613322	     -0.24771735	     24.87257322	     -2.89845016	      9.35290966	      2.46549595	      0.04303102	      7.54109724	      8.20325567	     -7.21338493	    -17.17422543	      2.60041027	     10.48578224	      5.52796220	      0.09648114	     17.87415145	      8.08931623	     -7.21338493	     -7.62543177	     -3.08145950	     -8.11101997	    -14.80292034	     -2.07502346	    -16.67011192	     32.69395824	    112.10594005	      9.51545442	    -11.18450976	     -0.19676073	     45.77082683	    110.29798740
      1.09000000	      1.09766188	      1.98930723	      2.30824393	      1.20027974	      0.93368015	     -0.24639262	     24.83996408	     -2.76897675	      8.84795192	      2.45400039	      0.04283039	      8.00085781	      8.14437953	     -7.21814992	    -18.15909592	      2.35557237	     10.12058105	      5.45313238	      0.09517511	     18.03680554	      8.75880674	     -7.21814992	     -7.81309471	     -3.05136336	     -8.25989499	    -14.74352924	     -2.04163434	    -16.84984641	     32.33651124	    112.10639640	      9.57124317	    -11.20909901	     -0.27431339	     46.54382549	    110.32557423
      1.10000000	      1.16756734	      1.96368807	      2.49196452	      1.21343862	      0.93131537	     -0.24494379	     24.73064139	     -2.60745092	      8.39504751	      2.64592721	      0.04618014	      8.28103965	      7.70982334	     -7.22679236	    -19.05591075	      2.07440775	      9.52479222	      5.52759405	      0.09647472	     18.24077494	      9.73485538	     -7.22679236	     -7.90992710	     -3.01417399	     -8.48794313	    -14.64768955	     -1.95935070	    -17.10914417	     31.95048462	    112.14486318	      9.37152996	    -11.14814338	     -0.66843049	     47.47363789	    110.32311954
      1.11000000	      1.20507867	      1.88453322	      2.63503286	      1.22667520	      0.92905901	     -0.24350071	     24.71113723	     -2.35826075	      7.97229019	      3.27764033	      0.05720562	      8.36626194	      7.06016056	     -7.22869257	    -19.83151339	      1.79706011	      9.34930716	      5.79705828	      0.10117775	     18.08793608	      9.86194669	     -7.22869257	     -7.99414845	     -2.86870145	     -8.38976830	    -14.77109808	     -1.98845820	    -17.19428900	     31.69975688	    112.14524355	      9.46041373	    -10.98579140	     -0.75728495	     47.87464293	    110.34206336
      1.12000000	      1.24188143	      1.78762859	      2.74607774	      1.24022397	      0.92700598	     -0.24194606	     24.65246704	     -2.06313829	      7.51258288	      4.10191388	      0.07159190	      8.20390267	      6.23376524	     -7.23062751	    -20.55350878	      1.51010199	      9.08316949	      6.16073821	      0.10752517	     17.80002190	     10.00469622	     -7.23062751	     -8.01584768	     -2.69772472	     -8.33427956	    -14.83671583	     -2.01044073	    -17.36787637	     31.43209260	    112.13633623	      9.33563086	    -10.83012059	     -0.88833574	     48.31612579	    110.36056474
      1.13000000	      1.09265475	      1.66844093	      2.79220167	      1.25402285	      0.92491980	     -0.24013885	     24.70137264	     -1.67596995	      7.56506224	      4.90938174	      0.08568488	      7.04738673	      4.05870179	     -7.24156378	    -20.87941799	      1.21481456	      8.40511177	      6.88075810	      0.12009188	     17.60865555	     10.64049505	     -7.24156378	     -7.79430235	     -2.51819340	     -8.59945458	    -14.65191115	     -1.97024347	    -18.00844020	     30.98516457	    112.20017486	      8.57308676	    -10.62014878	     -2.02988082	     49.44472868	    110.33597002
      1.14000000	      1.08365678	      1.51323639	      2.81369293	      1.26797372	      0.92331234	     -0.23848014	     24.60982613	     -1.28910812	      7.33400557	      5.90264821	      0.10302065	      6.46634060	      3.70866983	     -7.24275600	    -21.36183932	      0.93151879	      8.36399402	      7.61031444	      0.13282504	     17.09966727	     10.60561501	     -7.24275600	     -7.70396771	     -2.20505958	     -8.40570802	    -14.78129765	     -2.08545708	    -18.07339853	     30.82569926	    112.20206916	      8.33582752	    -10.39532685	     -2.08334337	     49.59075967	    110.34497824
